<?xml version="1.0" encoding="utf-8"?>
<!-- Generator: Adobe Illustrator 26.0.3, SVG Export Plug-In . SVG Version: 6.00 Build 0)  -->
<svg version="1.1" id="Layer_1" xmlns="http://www.w3.org/2000/svg" xmlns:xlink="http://www.w3.org/1999/xlink" x="0px" y="0px"
	 viewBox="0 0 36 36" style="enable-background:new 0 0 36 36;" xml:space="preserve">
<g>
	<path d="M21,3c0,1.6-1.3,3-3,3c-1.6,0-3-1.3-3-3s1.3-3,3-3C19.6,0,21,1.3,21,3z"/>
	<path d="M24.5,9.6v10.1c0,0.7-0.6,1.3-1.3,1.3c-0.7,0-1.3-0.6-1.3-1.3V11c0-0.1-0.1-0.2-0.2-0.2c-0.1,0-0.2,0.1-0.2,0.2v23.3h0
		c0,0.9-0.8,1.7-1.7,1.7c-0.9,0-1.7-0.8-1.7-1.7c0,0,0-0.1,0-0.1V20.7c0-0.1-0.1-0.2-0.2-0.2c-0.1,0-0.2,0.1-0.2,0.2v13.6
		c0,0.9-0.8,1.7-1.7,1.7c-0.9,0-1.7-0.8-1.7-1.7c0,0,0-0.1,0-0.1V20.6h0l0-9.5c0-0.1-0.1-0.2-0.2-0.2c-0.1,0-0.2,0.1-0.2,0.2v8.6
		c0,0.7-0.6,1.3-1.3,1.3c-0.7,0-1.3-0.6-1.3-1.3l0-10.1c0-1.5,1.1-2.7,2.5-2.9c0.1,0,0.3,0,0.4,0h7.2c0.1,0,0.3,0,0.4,0
		C23.4,6.9,24.5,8.1,24.5,9.6L24.5,9.6z"/>
</g>
</svg>
