<?xml version="1.0" encoding="utf-8"?>
<!-- Generator: Adobe Illustrator 26.0.3, SVG Export Plug-In . SVG Version: 6.00 Build 0)  -->
<svg version="1.1" id="Layer_1" xmlns="http://www.w3.org/2000/svg" xmlns:xlink="http://www.w3.org/1999/xlink" x="0px" y="0px"
	 viewBox="0 0 36 36" style="enable-background:new 0 0 36 36;" xml:space="preserve">
<style type="text/css">
	.st0{fill-rule:evenodd;clip-rule:evenodd;}
</style>
<path class="st0" d="M27.5,5.6c-0.3-0.6-0.3-1.4,0.1-2c0.5-0.7,1.4-2,1.9-2.8c0.3-0.5,0.8-0.8,1.4-0.8C31.5,0,32,0.2,32.4,0.6l3,3
	C35.8,4,36,4.5,36,5.1c-0.1,0.6-0.4,1.1-0.8,1.4c-0.8,0.5-2.1,1.4-2.8,1.9c-0.6,0.4-1.4,0.4-2,0.1l-7.7,7.7c0.9,0.9,1.4,2,1.4,3.2
	c0.1,1.3-0.4,2.4-1.2,3.3c0,0-2.3,2.3-3.4,3.4c-0.1,0.1-0.1,0.2-0.1,0.3c0.2,2.6-0.7,5.1-2.6,7C13.2,37,7,36.8,3.1,32.9
	C-0.8,29-1,22.8,2.6,19.2c1.9-1.9,4.4-2.7,7-2.6c0.1,0,0.3,0,0.3-0.1c1.1-1.1,3.4-3.4,3.4-3.4c0.8-0.8,2-1.3,3.3-1.2
	c1.2,0.1,2.3,0.6,3.2,1.4L27.5,5.6z M18.9,14.2c-0.7-0.6-1.5-1-2.4-1.1c-0.9,0-1.7,0.3-2.3,0.9c0,0-2.3,2.3-3.4,3.4
	c-0.3,0.3-0.8,0.5-1.3,0.5c-2.2-0.1-4.4,0.6-6,2.2C0.3,23.2,0.6,28.6,4,32c3.4,3.4,8.8,3.7,11.9,0.5c1.6-1.6,2.3-3.8,2.2-6
	c0-0.5,0.1-1,0.5-1.3c1.1-1.1,3.4-3.4,3.4-3.4c0.6-0.6,0.9-1.4,0.9-2.3c0-0.9-0.4-1.7-1.1-2.4L17,21.9c0.2,1.1-0.1,2.3-1,3.2
	c-1.4,1.4-3.7,1.4-5.1,0s-1.4-3.7,0-5.1c0.9-0.9,2.1-1.2,3.2-1L18.9,14.2z M6.1,26.2l3.8,3.8c0.2,0.2,0.6,0.2,0.9,0
	c0.2-0.2,0.2-0.6,0-0.9l-3.8-3.8c-0.2-0.2-0.6-0.2-0.9,0C5.8,25.5,5.8,25.9,6.1,26.2L6.1,26.2z M15.1,20.9c0.9,0.9,0.9,2.4,0,3.3
	c-0.9,0.9-2.4,0.9-3.3,0c-0.9-0.9-0.9-2.4,0-3.3S14.2,20,15.1,20.9z M16.5,20.6L29.4,7.7l-1.1-1.1L15.4,19.5
	c0.2,0.1,0.4,0.3,0.6,0.5C16.2,20.2,16.4,20.4,16.5,20.6L16.5,20.6z M31.5,1.5l3,3c0.1,0.1,0.2,0.3,0.2,0.5c0,0.2-0.1,0.4-0.3,0.5
	c-0.8,0.5-2.1,1.4-2.8,1.9c-0.3,0.2-0.6,0.1-0.8-0.1l-2.1-2.1c-0.2-0.2-0.3-0.6-0.1-0.8c0.5-0.7,1.4-2,1.9-2.8
	c0.1-0.2,0.3-0.3,0.5-0.3C31.2,1.3,31.4,1.3,31.5,1.5L31.5,1.5z"/>
</svg>
