<?xml version="1.0" encoding="utf-8"?>
<!-- Generator: Adobe Illustrator 26.0.3, SVG Export Plug-In . SVG Version: 6.00 Build 0)  -->
<svg version="1.1" id="Layer_1" xmlns="http://www.w3.org/2000/svg" xmlns:xlink="http://www.w3.org/1999/xlink" x="0px" y="0px"
	 viewBox="0 0 36 36" style="enable-background:new 0 0 36 36;" xml:space="preserve">
<style type="text/css">
	.st0{fill-rule:evenodd;clip-rule:evenodd;}
</style>
<g>
	<path class="st0" d="M22.9,0c1.9,0,3.5,1.6,3.5,3.6s-1.6,3.6-3.5,3.6c-1.9,0-3.5-1.6-3.5-3.6S20.9,0,22.9,0z"/>
	<path class="st0" d="M7.1,11.4c0,0,3.3-9.4,10.2-5.9c3.9,1.8,3.3,6.5,9.9,5.4c2.7-0.4,2.4,2.8,0.4,3.2c-2.1,0.4-5.7,0.2-8.8-3
		c-1.3,7.1,10.2,9.2,5.8,23.5c-0.6,1.7-3.7,1.8-3.1-0.7c0.6-2.5,2.4-5.8-2.2-12.8c-1.9,10.2-10.7,6.6-10.7,6.6
		c-2.3-0.8-1.4-4,1.8-2.7c3.2,1.3,7-2.7,5.4-5.8c-1.6-3.1-1.6-5.5-1.6-5.5C13.7,10.7,14.8,8,14.8,8c-0.1,0-2.6-1.8-5,5
		C8.9,15.6,6.1,14.1,7.1,11.4L7.1,11.4z"/>
</g>
</svg>
