<?xml version="1.0" encoding="utf-8"?>
<!-- Generator: Adobe Illustrator 26.0.3, SVG Export Plug-In . SVG Version: 6.00 Build 0)  -->
<svg version="1.1" id="Layer_1" xmlns="http://www.w3.org/2000/svg" xmlns:xlink="http://www.w3.org/1999/xlink" x="0px" y="0px"
	 viewBox="0 0 36 36" style="enable-background:new 0 0 36 36;" xml:space="preserve">
<path d="M27.9,19.2c-1.3,0-2.6,0.5-3.5,1.5c-0.9,0.9-1.5,2.2-1.5,3.5v6.2c0,1.3,0.5,2.6,1.5,3.5c0.9,0.9,2.2,1.5,3.5,1.5H31
	c1.3,0,2.6-0.5,3.5-1.5c0.9-0.9,1.5-2.2,1.5-3.5V18.6c0-6.4-3.4-12.4-9-15.6C21.4-0.2,14.6-0.2,9,3c-5.6,3.2-9,9.2-9,15.6v11.8
	c0,1.3,0.5,2.6,1.5,3.5c0.9,0.9,2.2,1.5,3.5,1.5h3.1c1.3,0,2.6-0.5,3.5-1.5c0.9-0.9,1.5-2.2,1.5-3.5v-6.2c0-1.3-0.5-2.6-1.5-3.5
	c-0.9-0.9-2.2-1.5-3.5-1.5H3.7v-0.6c0-5.1,2.7-9.8,7.1-12.4c4.4-2.6,9.9-2.6,14.3,0c4.4,2.6,7.1,7.3,7.1,12.4v0.6L27.9,19.2z
	 M8.1,23c0.3,0,0.6,0.1,0.9,0.4c0.2,0.2,0.4,0.5,0.4,0.9v6.2c0,0.3-0.1,0.6-0.4,0.9c-0.2,0.2-0.5,0.4-0.9,0.4H5
	c-0.7,0-1.2-0.6-1.2-1.2V23L8.1,23z M32.3,30.4c0,0.3-0.1,0.6-0.4,0.9c-0.2,0.2-0.5,0.4-0.9,0.4h-3.1c-0.7,0-1.2-0.6-1.2-1.2v-6.2
	c0-0.7,0.6-1.2,1.2-1.2h4.3L32.3,30.4z"/>
</svg>
