<?xml version="1.0" encoding="utf-8"?>
<!-- Generator: Adobe Illustrator 26.0.3, SVG Export Plug-In . SVG Version: 6.00 Build 0)  -->
<svg version="1.1" id="Layer_1" xmlns="http://www.w3.org/2000/svg" xmlns:xlink="http://www.w3.org/1999/xlink" x="0px" y="0px"
	 viewBox="0 0 36 36" style="enable-background:new 0 0 36 36;" xml:space="preserve">
<path d="M18,0c-0.7,0-1.3,0.6-1.3,1.3v0v0v5.1v0c0,0.7,0.6,1.3,1.3,1.3s1.3-0.6,1.3-1.3v0v0V1.3v0C19.3,0.6,18.7,0,18,0L18,0L18,0
	L18,0z M6.2,4.9c-0.7,0-1.3,0.6-1.3,1.3c0,0.4,0.1,0.7,0.4,0.9h0l3.6,3.6c0.2,0.2,0.6,0.4,0.9,0.4c0.7,0,1.3-0.6,1.3-1.3
	c0-0.4-0.2-0.7-0.4-0.9L7.1,5.3C6.9,5,6.5,4.9,6.2,4.9L6.2,4.9L6.2,4.9z M29.8,4.9c-0.3,0-0.7,0.2-0.9,0.4l-3.6,3.6
	c-0.2,0.2-0.4,0.6-0.4,0.9c0,0.7,0.6,1.3,1.3,1.3c0.4,0,0.7-0.2,0.9-0.4l3.6-3.6c0.2-0.2,0.4-0.6,0.4-0.9
	C31.1,5.5,30.5,4.9,29.8,4.9C29.8,4.9,29.8,4.9,29.8,4.9L29.8,4.9z M18,10.3c-4.2,0-7.7,3.5-7.7,7.7s3.5,7.7,7.7,7.7
	s7.7-3.5,7.7-7.7S22.2,10.3,18,10.3z M18,12.9c2.9,0,5.1,2.3,5.1,5.1s-2.3,5.1-5.1,5.1s-5.1-2.3-5.1-5.1S15.1,12.9,18,12.9z
	 M1.3,16.7L1.3,16.7C0.6,16.7,0,17.3,0,18s0.6,1.3,1.3,1.3h0h5.1h0c0.7,0,1.3-0.6,1.3-1.3s-0.6-1.3-1.3-1.3h0H1.3z M29.6,16.7
	L29.6,16.7c-0.7,0-1.3,0.6-1.3,1.3s0.6,1.3,1.3,1.3h0h5.1h0c0.7,0,1.3-0.6,1.3-1.3s-0.6-1.3-1.3-1.3h0H29.6z M9.8,24.9
	c-0.3,0-0.7,0.2-0.9,0.4l-3.6,3.6c-0.2,0.2-0.4,0.6-0.4,0.9c0,0.7,0.6,1.3,1.3,1.3c0.4,0,0.7-0.1,0.9-0.4l3.6-3.6
	c0.2-0.2,0.4-0.6,0.4-0.9C11.1,25.4,10.5,24.9,9.8,24.9C9.8,24.9,9.8,24.9,9.8,24.9L9.8,24.9L9.8,24.9z M26.2,24.9
	c-0.7,0-1.3,0.6-1.3,1.3c0,0.4,0.1,0.7,0.4,0.9l3.6,3.6c0.2,0.2,0.6,0.4,0.9,0.4c0.7,0,1.3-0.6,1.3-1.3c0-0.4-0.1-0.7-0.4-0.9
	l-3.6-3.6C26.8,25,26.5,24.9,26.2,24.9L26.2,24.9L26.2,24.9z M18,28.3c-0.7,0-1.3,0.6-1.3,1.3v0v0v5.1v0c0,0.7,0.6,1.3,1.3,1.3
	s1.3-0.6,1.3-1.3v0v0v-5.1v0C19.3,28.8,18.7,28.3,18,28.3L18,28.3L18,28.3L18,28.3z"/>
</svg>
