<?xml version="1.0" encoding="utf-8"?>
<!-- Generator: Adobe Illustrator 26.0.3, SVG Export Plug-In . SVG Version: 6.00 Build 0)  -->
<svg version="1.1" id="Layer_1" xmlns="http://www.w3.org/2000/svg" xmlns:xlink="http://www.w3.org/1999/xlink" x="0px" y="0px"
	 viewBox="0 0 36 36" style="enable-background:new 0 0 36 36;" xml:space="preserve">
<style type="text/css">
	.st0{fill-rule:evenodd;clip-rule:evenodd;}
</style>
<path class="st0" d="M5.6,0H3.4C2.5,0,1.6,0.4,1,1C0.4,1.6,0,2.5,0,3.4v2.2C0,6.5,0.4,7.4,1,8c0.6,0.6,1.5,1,2.4,1h2.2
	C6.5,9,7.4,8.6,8,8c0.6-0.6,1-1.5,1-2.4V3.4C9,2.5,8.6,1.6,8,1C7.4,0.4,6.5,0,5.6,0z M6.8,5.6c0,0.3-0.1,0.6-0.3,0.8
	S5.9,6.8,5.6,6.8H3.4c-0.3,0-0.6-0.1-0.8-0.3C2.4,6.2,2.2,5.9,2.2,5.6V3.4c0-0.3,0.1-0.6,0.3-0.8c0.2-0.2,0.5-0.3,0.8-0.3h2.2
	c0.3,0,0.6,0.1,0.8,0.3c0.2,0.2,0.3,0.5,0.3,0.8V5.6z M19.1,0h-2.2c-0.9,0-1.8,0.4-2.4,1c-0.6,0.6-1,1.5-1,2.4v2.2
	c0,0.9,0.4,1.8,1,2.4c0.6,0.6,1.5,1,2.4,1h2.2c0.9,0,1.8-0.4,2.4-1c0.6-0.6,1-1.5,1-2.4V3.4c0-0.9-0.4-1.8-1-2.4
	C20.9,0.4,20,0,19.1,0z M20.2,5.6c0,0.3-0.1,0.6-0.3,0.8s-0.5,0.3-0.8,0.3h-2.2c-0.3,0-0.6-0.1-0.8-0.3c-0.2-0.2-0.3-0.5-0.3-0.8
	V3.4c0-0.3,0.1-0.6,0.3-0.8c0.2-0.2,0.5-0.3,0.8-0.3h2.2c0.3,0,0.6,0.1,0.8,0.3c0.2,0.2,0.3,0.5,0.3,0.8V5.6z M32.6,0h-2.2
	c-0.9,0-1.8,0.4-2.4,1c-0.6,0.6-1,1.5-1,2.4v2.2c0,0.9,0.4,1.8,1,2.4c0.6,0.6,1.5,1,2.4,1h2.2c0.9,0,1.8-0.4,2.4-1
	c0.6-0.6,1-1.5,1-2.4V3.4c0-0.9-0.4-1.8-1-2.4C34.4,0.4,33.5,0,32.6,0z M33.8,5.6c0,0.3-0.1,0.6-0.3,0.8s-0.5,0.3-0.8,0.3h-2.2
	c-0.3,0-0.6-0.1-0.8-0.3c-0.2-0.2-0.3-0.5-0.3-0.8V3.4c0-0.3,0.1-0.6,0.3-0.8c0.2-0.2,0.5-0.3,0.8-0.3h2.2c0.3,0,0.6,0.1,0.8,0.3
	c0.2,0.2,0.3,0.5,0.3,0.8V5.6z M32.6,13.5h-2.2c-0.9,0-1.8,0.4-2.4,1c-0.6,0.6-1,1.5-1,2.4v2.2c0,0.9,0.4,1.8,1,2.4
	c0.6,0.6,1.5,1,2.4,1h2.2c0.9,0,1.8-0.4,2.4-1c0.6-0.6,1-1.5,1-2.4v-2.2c0-0.9-0.4-1.8-1-2.4C34.4,13.9,33.5,13.5,32.6,13.5z
	 M33.8,19.1c0,0.3-0.1,0.6-0.3,0.8s-0.5,0.3-0.8,0.3h-2.2c-0.3,0-0.6-0.1-0.8-0.3s-0.3-0.5-0.3-0.8v-2.2c0-0.3,0.1-0.6,0.3-0.8
	c0.2-0.2,0.5-0.3,0.8-0.3h2.2c0.3,0,0.6,0.1,0.8,0.3c0.2,0.2,0.3,0.5,0.3,0.8V19.1z M19.1,13.5h-2.2c-0.9,0-1.8,0.4-2.4,1
	c-0.6,0.6-1,1.5-1,2.4v2.2c0,0.9,0.4,1.8,1,2.4c0.6,0.6,1.5,1,2.4,1h2.2c0.9,0,1.8-0.4,2.4-1c0.6-0.6,1-1.5,1-2.4v-2.2
	c0-0.9-0.4-1.8-1-2.4C20.9,13.9,20,13.5,19.1,13.5z M20.2,19.1c0,0.3-0.1,0.6-0.3,0.8s-0.5,0.3-0.8,0.3h-2.2c-0.3,0-0.6-0.1-0.8-0.3
	s-0.3-0.5-0.3-0.8v-2.2c0-0.3,0.1-0.6,0.3-0.8c0.2-0.2,0.5-0.3,0.8-0.3h2.2c0.3,0,0.6,0.1,0.8,0.3c0.2,0.2,0.3,0.5,0.3,0.8V19.1z
	 M5.6,13.5H3.4c-0.9,0-1.8,0.4-2.4,1c-0.6,0.6-1,1.5-1,2.4v2.2c0,0.9,0.4,1.8,1,2.4c0.6,0.6,1.5,1,2.4,1h2.2c0.9,0,1.8-0.4,2.4-1
	c0.6-0.6,1-1.5,1-2.4v-2.2c0-0.9-0.4-1.8-1-2.4C7.4,13.9,6.5,13.5,5.6,13.5z M6.8,19.1c0,0.3-0.1,0.6-0.3,0.8s-0.5,0.3-0.8,0.3H3.4
	c-0.3,0-0.6-0.1-0.8-0.3c-0.2-0.2-0.3-0.5-0.3-0.8v-2.2c0-0.3,0.1-0.6,0.3-0.8c0.2-0.2,0.5-0.3,0.8-0.3h2.2c0.3,0,0.6,0.1,0.8,0.3
	c0.2,0.2,0.3,0.5,0.3,0.8V19.1z M5.6,27H3.4c-0.9,0-1.8,0.4-2.4,1c-0.6,0.6-1,1.5-1,2.4v2.2c0,0.9,0.4,1.8,1,2.4
	c0.6,0.6,1.5,1,2.4,1h2.2c0.9,0,1.8-0.4,2.4-1c0.6-0.6,1-1.5,1-2.4v-2.2c0-0.9-0.4-1.8-1-2.4C7.4,27.4,6.5,27,5.6,27z M6.8,32.6
	c0,0.3-0.1,0.6-0.3,0.8s-0.5,0.3-0.8,0.3H3.4c-0.3,0-0.6-0.1-0.8-0.3c-0.2-0.2-0.3-0.5-0.3-0.8v-2.2c0-0.3,0.1-0.6,0.3-0.8
	c0.2-0.2,0.5-0.3,0.8-0.3h2.2c0.3,0,0.6,0.1,0.8,0.3s0.3,0.5,0.3,0.8V32.6z M19.1,27h-2.2c-0.9,0-1.8,0.4-2.4,1
	c-0.6,0.6-1,1.5-1,2.4v2.2c0,0.9,0.4,1.8,1,2.4c0.6,0.6,1.5,1,2.4,1h2.2c0.9,0,1.8-0.4,2.4-1c0.6-0.6,1-1.5,1-2.4v-2.2
	c0-0.9-0.4-1.8-1-2.4C20.9,27.4,20,27,19.1,27z M20.2,32.6c0,0.3-0.1,0.6-0.3,0.8s-0.5,0.3-0.8,0.3h-2.2c-0.3,0-0.6-0.1-0.8-0.3
	s-0.3-0.5-0.3-0.8v-2.2c0-0.3,0.1-0.6,0.3-0.8s0.5-0.3,0.8-0.3h2.2c0.3,0,0.6,0.1,0.8,0.3s0.3,0.5,0.3,0.8V32.6z M32.6,27h-2.2
	c-0.9,0-1.8,0.4-2.4,1c-0.6,0.6-1,1.5-1,2.4v2.2c0,0.9,0.4,1.8,1,2.4c0.6,0.6,1.5,1,2.4,1h2.2c0.9,0,1.8-0.4,2.4-1
	c0.6-0.6,1-1.5,1-2.4v-2.2c0-0.9-0.4-1.8-1-2.4C34.4,27.4,33.5,27,32.6,27z M33.8,32.6c0,0.3-0.1,0.6-0.3,0.8s-0.5,0.3-0.8,0.3h-2.2
	c-0.3,0-0.6-0.1-0.8-0.3s-0.3-0.5-0.3-0.8v-2.2c0-0.3,0.1-0.6,0.3-0.8s0.5-0.3,0.8-0.3h2.2c0.3,0,0.6,0.1,0.8,0.3s0.3,0.5,0.3,0.8
	V32.6z"/>
</svg>
