<?xml version="1.0" encoding="utf-8"?>
<!-- Generator: Adobe Illustrator 26.0.3, SVG Export Plug-In . SVG Version: 6.00 Build 0)  -->
<svg version="1.1" id="Layer_1" xmlns="http://www.w3.org/2000/svg" xmlns:xlink="http://www.w3.org/1999/xlink" x="0px" y="0px"
	 viewBox="0 0 700 700" style="enable-background:new 0 0 700 700;" xml:space="preserve">
<style type="text/css">
	.st0{fill-rule:evenodd;clip-rule:evenodd;}
</style>
<path class="st0" d="M262.5,385h-140c-13.9,0-27.3,5.5-37.1,15.4c-9.8,9.8-15.4,23.2-15.4,37.1v140c0,13.9,5.5,27.3,15.4,37.1
	c9.8,9.8,23.2,15.4,37.1,15.4h140c13.9,0,27.3-5.5,37.1-15.4c9.8-9.8,15.4-23.2,15.4-37.1v-140c0-13.9-5.5-27.3-15.4-37.1
	C289.8,390.5,276.4,385,262.5,385z M280,560c0,9.3-3.7,18.2-10.2,24.8c-6.6,6.6-15.5,10.2-24.8,10.2H140c-9.3,0-18.2-3.7-24.8-10.2
	c-6.6-6.6-10.2-15.5-10.2-24.8V455c0-9.3,3.7-18.2,10.2-24.8c6.6-6.6,15.5-10.2,24.8-10.2h105c9.3,0,18.2,3.7,24.8,10.2
	c6.6,6.6,10.2,15.5,10.2,24.8V560z M262.5,70h-140c-13.9,0-27.3,5.5-37.1,15.4C75.5,95.2,70,108.6,70,122.5v140
	c0,13.9,5.5,27.3,15.4,37.1c9.8,9.8,23.2,15.4,37.1,15.4h140c13.9,0,27.3-5.5,37.1-15.4c9.8-9.8,15.4-23.2,15.4-37.1v-140
	c0-13.9-5.5-27.3-15.4-37.1C289.8,75.5,276.4,70,262.5,70z M280,245c0,9.3-3.7,18.2-10.2,24.8c-6.6,6.6-15.5,10.2-24.8,10.2H140
	c-9.3,0-18.2-3.7-24.8-10.2c-6.6-6.6-10.2-15.5-10.2-24.8V140c0-9.3,3.7-18.2,10.2-24.8c6.6-6.6,15.5-10.2,24.8-10.2h105
	c9.3,0,18.2,3.7,24.8,10.2c6.6,6.6,10.2,15.5,10.2,24.8V245z M577.5,70h-140c-13.9,0-27.3,5.5-37.1,15.4
	c-9.8,9.8-15.4,23.2-15.4,37.1v140c0,13.9,5.5,27.3,15.4,37.1c9.8,9.8,23.2,15.4,37.1,15.4h140c13.9,0,27.3-5.5,37.1-15.4
	c9.8-9.8,15.4-23.2,15.4-37.1v-140c0-13.9-5.5-27.3-15.4-37.1C604.8,75.5,591.4,70,577.5,70z M595,245c0,9.3-3.7,18.2-10.2,24.8
	c-6.6,6.6-15.5,10.2-24.8,10.2H455c-9.3,0-18.2-3.7-24.8-10.2c-6.6-6.6-10.2-15.5-10.2-24.8V140c0-9.3,3.7-18.2,10.2-24.8
	c6.6-6.6,15.5-10.2,24.8-10.2h105c9.3,0,18.2,3.7,24.8,10.2c6.6,6.6,10.2,15.5,10.2,24.8V245z M577.5,385h-140
	c-13.9,0-27.3,5.5-37.1,15.4c-9.8,9.8-15.4,23.2-15.4,37.1v140c0,13.9,5.5,27.3,15.4,37.1c9.8,9.8,23.2,15.4,37.1,15.4h140
	c13.9,0,27.3-5.5,37.1-15.4c9.8-9.8,15.4-23.2,15.4-37.1v-140c0-13.9-5.5-27.3-15.4-37.1C604.8,390.5,591.4,385,577.5,385z M595,560
	c0,9.3-3.7,18.2-10.2,24.8c-6.6,6.6-15.5,10.2-24.8,10.2H455c-9.3,0-18.2-3.7-24.8-10.2c-6.6-6.6-10.2-15.5-10.2-24.8V455
	c0-9.3,3.7-18.2,10.2-24.8c6.6-6.6,15.5-10.2,24.8-10.2h105c9.3,0,18.2,3.7,24.8,10.2c6.6,6.6,10.2,15.5,10.2,24.8V560z"/>
</svg>
