<?xml version="1.0" encoding="utf-8"?>
<!-- Generator: Adobe Illustrator 26.0.3, SVG Export Plug-In . SVG Version: 6.00 Build 0)  -->
<svg version="1.1" id="Layer_1" xmlns="http://www.w3.org/2000/svg" xmlns:xlink="http://www.w3.org/1999/xlink" x="0px" y="0px"
	 viewBox="0 0 36 36" style="enable-background:new 0 0 36 36;" xml:space="preserve">
<path d="M5.5,35.6h25c1.9,0,3.7-1,4.7-2.7c1-1.7,1-3.7,0.1-5.4l-8.6-15.8l5.4-9.4L29,0.4l-4.3,7.5l-1.6-3v0
	c-0.7-1.2-1.8-2.2-3.1-2.6c-1.3-0.5-2.7-0.5-4.1,0c-1.3,0.5-2.4,1.4-3.1,2.6L0.7,27.4c-0.9,1.7-0.9,3.8,0.1,5.4
	C1.7,34.5,3.5,35.6,5.5,35.6L5.5,35.6z M29.1,23.6h-9.2l4.7-8.2L29.1,23.6z M16.1,6.7c0.3-0.5,0.7-0.8,1.2-1c0.5-0.2,1.1-0.2,1.6,0
	c0.5,0.2,0.9,0.5,1.2,1l2.7,4.9l-6.9,11.9H6.9L16.1,6.7z M3.8,29.2l1.1-2h26.2l1.1,2c0.3,0.6,0.3,1.3,0,1.9c-0.3,0.6-1,0.9-1.6,0.9
	h-25c-0.7,0-1.3-0.4-1.6-0.9C3.5,30.5,3.5,29.7,3.8,29.2L3.8,29.2z"/>
</svg>
