<?xml version="1.0" encoding="utf-8"?>
<!-- Generator: Adobe Illustrator 26.0.3, SVG Export Plug-In . SVG Version: 6.00 Build 0)  -->
<svg version="1.1" id="Layer_1" xmlns="http://www.w3.org/2000/svg" xmlns:xlink="http://www.w3.org/1999/xlink" x="0px" y="0px"
	 viewBox="0 0 36 36" style="enable-background:new 0 0 36 36;" xml:space="preserve">
<path d="M11.8,11.1L1.6,12.6l-0.2,0C0,13-0.5,14.7,0.6,15.7l7.3,7.1L6.2,32.9l0,0.2c-0.1,1.4,1.4,2.5,2.8,1.8l9.1-4.7l9.1,4.7
	l0.2,0.1c1.3,0.5,2.8-0.6,2.5-2.1l-1.7-10.1l7.3-7.1l0.1-0.2c0.9-1.1,0.3-2.8-1.2-3l-10.2-1.5l-4.5-9.1c-0.7-1.4-2.7-1.4-3.4,0
	L11.8,11.1z M18,7l3.3,6.6l0.1,0.2c0.3,0.4,0.8,0.7,1.3,0.8l7.4,1.1l-5.3,5.2L24.6,21c-0.3,0.4-0.5,1-0.4,1.5l1.3,7.3l-6.6-3.4
	l-0.2-0.1c-0.5-0.2-1.1-0.2-1.5,0.1l-6.6,3.4l1.3-7.3l0-0.2c0-0.5-0.2-1.1-0.6-1.4l-5.3-5.2l7.4-1.1c0.6-0.1,1.1-0.5,1.4-1L18,7z"/>
</svg>
