<?xml version="1.0" encoding="utf-8"?>
<!-- Generator: Adobe Illustrator 26.0.3, SVG Export Plug-In . SVG Version: 6.00 Build 0)  -->
<svg version="1.1" id="Layer_1" xmlns="http://www.w3.org/2000/svg" xmlns:xlink="http://www.w3.org/1999/xlink" x="0px" y="0px"
	 viewBox="0 0 36 36" style="enable-background:new 0 0 36 36;" xml:space="preserve">
<style type="text/css">
	.st0{fill-rule:evenodd;clip-rule:evenodd;}
</style>
<path class="st0" d="M27.2,5.9C27,5.5,26.9,5.1,27,4.6c0.1-0.6,0.5-1.1,1.1-1.3c0.5-0.2,1.1-0.4,1.4-0.7c0.3-0.3,0.5-0.9,0.7-1.4
	c0.2-0.6,0.7-1,1.3-1.1c0.6-0.1,1.2,0.1,1.7,0.5c0.6,0.6,1.6,1.6,2.2,2.2c0.4,0.4,0.6,1.1,0.5,1.7c-0.1,0.6-0.5,1.1-1.1,1.3l0,0
	c-0.5,0.2-1.1,0.4-1.4,0.7c-0.3,0.3-0.5,0.9-0.7,1.4c-0.2,0.6-0.7,1-1.3,1.1c-0.4,0.1-0.9,0-1.3-0.2l-11,11l0.1,0.1
	c1.2,1.2,3.3,1.2,3.3,1.2c0.6,0,1.2,0.5,1.2,1.2c0.1,0.6-0.4,1.2-1,1.3c0,0-3.5,0.6-4.9,2c-0.1,0.1-0.2,0.5-0.4,0.9
	c-0.3,1-0.6,2.4-0.9,3.9c-0.6,2.8-2.6,4.9-5.5,5.4c-2.7,0.5-5.7-0.5-7.9-2.7C3.1,33,3,32.9,2.9,32.8c-2.2-2.2-3.2-5.2-2.7-8
	c0.5-2.9,2.6-5,5.4-5.5c1.5-0.3,2.9-0.6,3.9-0.9c0.4-0.1,0.8-0.2,0.9-0.4c1.4-1.4,2.1-4.9,2.1-4.9c0.1-0.6,0.7-1.1,1.4-1
	c0.6,0.1,1.1,0.6,1.1,1.3c0,0,0,2.1,1.2,3.3l0.1,0.1L27.2,5.9z M15.3,17.7l-0.1-0.1c-1.5-1.5-1.6-4.2-1.6-4.2s-0.8,4-2.4,5.6
	c-0.6,0.6-2.8,1.1-5.4,1.6c-2.3,0.4-4,2.2-4.4,4.5s0.5,4.9,2.4,6.8C3.9,32,4,32.1,4.1,32.2c1.9,1.9,4.5,2.8,6.8,2.4
	c2.3-0.4,4-2.1,4.5-4.4c0.5-2.7,1.1-4.9,1.7-5.5c1.6-1.6,5.5-2.4,5.5-2.4s-2.7-0.1-4.2-1.6l-0.1-0.1L12,26.9c-0.5,0.5-1.3,0.5-1.8,0
	l-1.1-1.1c-0.5-0.5-0.5-1.3,0-1.8L15.3,17.7z M4.5,29.6l1.9,1.9c0.2,0.2,0.6,0.2,0.9,0c0.2-0.2,0.2-0.6,0-0.9l-1.9-1.9
	c-0.2-0.2-0.6-0.2-0.9,0C4.2,28.9,4.2,29.3,4.5,29.6z M6.5,27.6l1.9,1.9c0.2,0.2,0.6,0.2,0.9,0c0.2-0.2,0.2-0.6,0-0.9l-1.9-1.9
	c-0.2-0.2-0.6-0.2-0.9,0C6.2,27,6.2,27.4,6.5,27.6z M28,6.8l-18,18l1.1,1.1l18-18l-0.6-0.6L28,6.8z M34.4,4.6
	c0.2-0.1,0.3-0.2,0.4-0.4c0-0.2,0-0.4-0.2-0.5C33.9,3,33,2.1,32.4,1.4c-0.1-0.1-0.3-0.2-0.5-0.2c-0.2,0-0.3,0.2-0.4,0.4
	c-0.2,0.6-0.6,1.4-1,1.8c-0.4,0.4-1.2,0.8-1.8,1c-0.2,0.1-0.3,0.2-0.4,0.4c0,0.2,0,0.4,0.2,0.5C29,6,30,7,30.6,7.6
	c0.1,0.1,0.3,0.2,0.5,0.2s0.3-0.2,0.4-0.4c0.3-0.6,0.6-1.5,1-1.8C32.9,5.2,33.7,4.8,34.4,4.6L34.4,4.6z"/>
</svg>
