<?xml version="1.0" encoding="utf-8"?>
<!-- Generator: Adobe Illustrator 26.0.3, SVG Export Plug-In . SVG Version: 6.00 Build 0)  -->
<svg version="1.1" id="Layer_1" xmlns="http://www.w3.org/2000/svg" xmlns:xlink="http://www.w3.org/1999/xlink" x="0px" y="0px"
	 viewBox="0 0 36 36" style="enable-background:new 0 0 36 36;" xml:space="preserve">
<path d="M18,0c-2.6,0-5.2,1-7.2,3C9.5,4.3,8.6,6,8.2,7.7c-4,0.7-7.1,4.2-7.1,8.4c0,4.8,3.9,8.6,8.6,8.6h17.6c4.1,0,7.5-3.4,7.5-7.5
	c0-3.9-3-7.1-6.8-7.4c-0.1-2.5-1-5-2.9-6.9C23.2,1,20.6,0,18,0L18,0z M18,2.3c2,0,4,0.8,5.6,2.3c1.7,1.7,2.5,4,2.3,6.2v0
	c0,0.3,0.1,0.6,0.3,0.9c0.2,0.2,0.5,0.4,0.8,0.4h0.4c2.9,0,5.2,2.3,5.2,5.2s-2.3,5.2-5.2,5.2H9.8c-3.5,0-6.4-2.8-6.4-6.4
	c0-3.4,2.6-6.1,5.8-6.4c0.3,0,0.5-0.1,0.7-0.3c0.2-0.2,0.3-0.4,0.3-0.6c0.3-1.6,1-3.1,2.2-4.3C14,3,16,2.3,18,2.3L18,2.3z M8.9,25.9
	c-0.4,0-0.7,0.2-0.9,0.6L6.5,29c-0.3,0.5-0.1,1.2,0.4,1.5c0.5,0.3,1.2,0.1,1.5-0.4l1.5-2.6c0.3-0.5,0.1-1.2-0.4-1.5
	C9.4,25.9,9.1,25.9,8.9,25.9z M15.3,25.9c-0.4,0-0.7,0.2-0.9,0.6L12.9,29c-0.3,0.5-0.1,1.2,0.4,1.5c0.5,0.3,1.2,0.1,1.5-0.4l1.5-2.6
	c0.3-0.5,0.1-1.2-0.4-1.5C15.7,25.9,15.5,25.9,15.3,25.9z M21.7,25.9c-0.4,0-0.7,0.2-0.9,0.6L19.3,29c-0.3,0.5-0.1,1.2,0.4,1.5
	c0.5,0.3,1.2,0.1,1.5-0.4l1.5-2.6c0.3-0.5,0.1-1.2-0.4-1.5C22.1,25.9,21.9,25.9,21.7,25.9z M28,25.9c-0.4,0-0.7,0.2-0.9,0.6L25.7,29
	c-0.3,0.5-0.1,1.2,0.4,1.5c0.5,0.3,1.2,0.1,1.5-0.4l1.5-2.6c0.3-0.5,0.1-1.2-0.4-1.5C28.5,25.9,28.3,25.9,28,25.9L28,25.9z
	 M10.4,31.2c-0.4,0-0.7,0.2-0.9,0.6L8,34.3c-0.3,0.5-0.1,1.2,0.4,1.5C9,36.2,9.7,36,10,35.4l1.5-2.6c0.3-0.5,0.1-1.2-0.4-1.5
	C10.9,31.2,10.6,31.1,10.4,31.2L10.4,31.2z M16.8,31.2c-0.4,0-0.7,0.2-0.9,0.6l-1.5,2.6c-0.3,0.5-0.1,1.2,0.4,1.5
	c0.5,0.3,1.2,0.1,1.5-0.4l1.5-2.6c0.3-0.5,0.1-1.2-0.4-1.5C17.2,31.2,17,31.1,16.8,31.2L16.8,31.2z M23.2,31.2
	c-0.4,0-0.7,0.2-0.9,0.6l-1.5,2.6c-0.3,0.5-0.1,1.2,0.4,1.5c0.5,0.3,1.2,0.1,1.5-0.4l1.5-2.6c0.3-0.5,0.1-1.2-0.4-1.5
	C23.6,31.2,23.4,31.1,23.2,31.2L23.2,31.2z"/>
</svg>
